<svg width="8" height="18" viewBox="0 0 10 18" fill="none" xmlns="http://www.w3.org/2000/svg">
    <path d="M6.42858 9.31201C8.49376 8.72743 10 6.90876 10 4.75473C10 2.1286 7.76159 0 4.99998 0C2.23837 0 0 2.1286 0 4.75473C0 6.9088 1.50624 8.72747 3.57142 9.31205V12.5661H0.714259V15.283H3.57142V18H6.42858V15.283H9.28574V12.566H6.42858V9.31201ZM4.99998 6.79246C3.81651 6.79246 2.85712 5.88014 2.85712 4.75473C2.85712 3.62932 3.81651 2.71699 4.99998 2.71699C6.18345 2.71699 7.14284 3.62932 7.14284 4.75473C7.14284 5.88014 6.18349 6.79246 4.99998 6.79246Z" fill="#FE929F" fill-opacity="0.8" />
</svg>
