<svg width="22" height="30" viewBox="0 0 22 26" fill="none" xmlns="http://www.w3.org/2000/svg">
    <path fill-rule="evenodd" clip-rule="evenodd" d="M0 10.6908C0 4.77862 4.94055 0 10.9166 0C16.9096 0 21.8501 4.77862 21.8501 10.6908C21.8501 13.6701 20.7666 16.436 18.9833 18.7803C17.0159 21.3662 14.591 23.6193 11.8615 25.3878C11.2368 25.7966 10.673 25.8274 9.98738 25.3878C7.24234 23.6193 4.81743 21.3662 2.86687 18.7803C1.0822 16.436 0 13.6701 0 10.6908ZM7.31877 11.0236C7.31877 13.0042 8.93495 14.5619 10.9166 14.5619C12.8996 14.5619 14.5313 13.0042 14.5313 11.0236C14.5313 9.05842 12.8996 7.42485 10.9166 7.42485C8.93495 7.42485 7.31877 9.05842 7.31877 11.0236Z" fill="#424960" />
</svg>
