<svg width="8" height="18" viewBox="0 0 9 17" fill="none" xmlns="http://www.w3.org/2000/svg">
    <path d="M5.7857 8.20655V4.48991L6.09589 4.79941C6.81145 5.51338 8.03572 5.00747 8.03572 3.99765C8.03572 3.8469 8.006 3.6998 7.94935 3.56349C7.82915 3.27428 7.95959 3.45186 4.50004 0L1.297 3.19589C1.08406 3.40834 0.964321 3.69661 0.964321 3.99765C0.964321 5.00657 2.1876 5.51435 2.90415 4.79941L3.21434 4.48991V8.20655C1.35561 8.75857 0 10.476 0 12.51C0 14.9899 2.01456 17 4.5 17C6.98544 17 9 14.9899 9 12.51C8.99996 10.476 7.64435 8.75857 5.7857 8.20655ZM4.5 14.4343C3.43488 14.4343 2.57143 13.5728 2.57143 12.51C2.57143 11.4473 3.43488 10.5858 4.5 10.5858C5.56512 10.5858 6.42857 11.4473 6.42857 12.51C6.42857 13.5728 5.56512 14.4343 4.5 14.4343Z" fill="#99D4FF" />
</svg>
