<svg width="30" height="30" viewBox="0 0 30 31" fill="none" xmlns="http://www.w3.org/2000/svg">
    <path d="M24.4834 19.2297C22.7317 19.2297 21.1867 20.0643 20.1772 21.3422L10.8143 16.554C10.9369 16.0969 11.025 15.6245 11.025 15.1274C11.025 14.5862 10.9204 14.0767 10.7743 13.5809L20.0959 8.81482C21.0998 10.1506 22.6849 11.0237 24.4847 11.0237C27.5336 11.0237 30 8.55735 30 5.51118C30.0001 2.46777 27.5336 0 24.4848 0C21.4428 0 18.9737 2.46777 18.9737 5.51112C18.9737 6.00965 19.0618 6.48335 19.1858 6.94192L9.8242 11.7301C8.81341 10.4508 7.26553 9.61353 5.51112 9.61353C2.46496 9.61353 0 12.0826 0 15.1274C0 18.1722 2.46502 20.6399 5.51112 20.6399C7.31373 20.6399 8.89743 19.7641 9.90541 18.4269L19.2228 23.193C19.0768 23.6874 18.9709 24.2011 18.9709 24.7437C18.9709 27.7884 21.44 30.2562 24.482 30.2562C27.5309 30.2562 29.9973 27.7884 29.9973 24.7437C29.9987 21.6962 27.5323 19.2297 24.4834 19.2297Z" fill="#424960" />
</svg>
